PathFileType	4	(X/Y/Z)	/Users/niels/Desktop/University/Third Semester/Perception and Action/Exam/Gymnastics Motion Tracking/Code for Gym Tracking/Analyzed Data/Webcam_Backflip/id9_2_trajectory_Sports2D/id9_2_trajectory_Sports2D_px_person00.trc
DataRate	CameraRate	NumFrames	NumMarkers	Units	OrigDataRate	OrigDataStartFrame	OrigNumFrames
29.714285714285715	29.714285714285715	12	22	m	29.714285714285715	13	105
Frame#	Time	Hip			RHip			RKnee			RAnkle			RBigToe			RSmallToe			RHeel			LHip			LKnee			LAnkle			LBigToe			LSmallToe			LHeel			Neck			Head			Nose			RShoulder			RElbow			RWrist			LShoulder			LElbow			LWrist		
		X1	Y1	Z1	X2	Y2	Z2	X3	Y3	Z3	X4	Y4	Z4	X5	Y5	Z5	X6	Y6	Z6	X7	Y7	Z7	X8	Y8	Z8	X9	Y9	Z9	X10	Y10	Z10	X11	Y11	Z11	X12	Y12	Z12	X13	Y13	Z13	X14	Y14	Z14	X15	Y15	Z15	X16	Y16	Z16	X17	Y17	Z17	X18	Y18	Z18	X19	Y19	Z19	X20	Y20	Z20	X21	Y21	Z21	X22	Y22	Z22
13	0.4375	1.029321208436194	-0.574593454262337	0.0	1.0077681411397086	-0.5712696032083748	0.0	0.9740594483845004	-0.798741636473287	0.0	0.8658156716466097	-0.9865733223308878	0.0	0.9414618745192058	-1.030686572233916	0.0	0.9159892522530714	-1.0396437340188904	0.0	0.841902260558656	-1.006935776672412	0.0	1.0626857061420463	-0.5806066849372319	0.0	1.1304067437709475	-0.7838504341421222	0.0	1.1919233303739334	-0.983174975837357	0.0	1.2937048592537044	-0.9972155620629161	0.0	1.2845442128478635	-0.9918479968662461	0.0	1.187842094340954	-1.0125009729328105	0.0	1.0418218209739627	-0.2726881504680086	0.0	1.0790948568684553	-0.14178521280306208	0.0	1.1067293748556444	-0.21972821474981788	0.0	1.0249792461771698	-0.2991203323138737	0.0	1.1640890647191005	-0.33680204905610833	0.0	1.3079963534187669	-0.3165738378412673	0.0	1.0356658398482885	-0.3085072551483501	0.0	1.1554809282317167	-0.36709829896280255	0.0	1.2815814063336024	-0.32063069110139847	0.0
14	0.47115384615384615	1.043993797386985	-0.5781456465364875	0.0	1.0236371251082248	-0.5745023534307772	0.0	0.989903090096898	-0.8019920886312969	0.0	0.8695200064347943	-0.9819733186892482	0.0	0.9402589015579377	-1.031631659801992	0.0	0.9150548454543825	-1.0387039591097125	0.0	0.8447752421250132	-0.9996971647922416	0.0	1.0776714935016676	-0.5836687757302517	0.0	1.1458105690702267	-0.7878454044397336	0.0	1.2036570515290068	-0.9887627224448365	0.0	1.3057911101107218	-1.0055139833898101	0.0	1.296386071726468	-0.9995369120807798	0.0	1.198085328203117	-1.0171764109710306	0.0	1.0601359110404236	-0.275108828566406	0.0	1.0966249479994803	-0.1446070904877398	0.0	1.1243134404343855	-0.2233280197492907	0.0	1.0467060942084094	-0.30334856796421283	0.0	1.1785140068250166	-0.3654954304287525	0.0	1.321265132060043	-0.3730469940920662	0.0	1.050811455561615	-0.3111835714328113	0.0	1.1684403436500628	-0.38895787187844394	0.0	1.2940555825311506	-0.37054640971644504	0.0
15	0.5048076923076923	1.0593465701334044	-0.5810975766563454	0.0	1.0408867292906	-0.5774314872234761	0.0	1.011466222245523	-0.804316910811131	0.0	0.8787951901637066	-0.9752570103916528	0.0	0.9433441469738831	-1.0320587518055067	0.0	0.918377135323354	-1.036838012483073	0.0	0.8528478543337921	-0.9897123289066093	0.0	1.0922274770888816	-0.5856297667701977	0.0	1.1612012086757224	-0.7900992988886438	0.0	1.210787227926384	-0.9927970916072463	0.0	1.3099457928574456	-1.0143324016566069	0.0	1.3021104111934412	-1.007711294168007	0.0	1.200795084236097	-1.0200247590682896	0.0	1.0808107512856986	-0.2772710223165983	0.0	1.1173228427450723	-0.1472209969423405	0.0	1.1444278532962142	-0.22675370767304648	0.0	1.070289912650746	-0.3071428354047585	0.0	1.1910793876694152	-0.39426035885180144	0.0	1.3271567523086312	-0.43122072932721184	0.0	1.0678336801893638	-0.3127775163227809	0.0	1.1774960228797533	-0.4087147082532195	0.0	1.2979479183687666	-0.4223077719503142	0.0
16	0.5384615384615384	1.0749931456996658	-0.5830777957478632	0.0	1.0595520092518036	-0.5796097964493324	0.0	1.0394807426355939	-0.8051791287160728	0.0	0.8964124120911495	-0.9671805306705923	0.0	0.9541077971780054	-1.0316157828138501	0.0	0.9293886866256847	-1.0340838223574318	0.0	0.8690069140321144	-0.9784155933719031	0.0	1.1055223889805788	-0.5862056584243737	0.0	1.1757792679319423	-0.7903555603658642	0.0	1.2147886625740398	-0.9945493060226168	0.0	1.30647657366298	-1.0216714603721035	0.0	1.3034968151798458	-1.0145834520640107	0.0	1.196621685016456	-1.0201514949630508	0.0	1.103175545548504	-0.2787694742122964	0.0	1.1407443371511896	-0.14924267612290293	0.0	1.166672379694975	-0.22950534918948728	0.0	1.0951109197132778	-0.310218814751983	0.0	1.2005759560915321	-0.421143575243936	0.0	1.324473590986873	-0.4879722724603669	0.0	1.0856223421818743	-0.31339618518649914	0.0	1.1811154796709797	-0.4267581848033423	0.0	1.292754756385705	-0.4732266817038791	0.0
17	0.5721153846153846	1.090858231109693	-0.5840956927633564	0.0	1.0795272191681198	-0.5808993319491101	0.0	1.0732540699318192	-0.8043599250098524	0.0	0.9246346077532721	-0.9593215342123689	0.0	0.9765386930172544	-1.0302349411816674	0.0	0.9522667048528942	-1.0309468335103358	0.0	0.8957997688696145	-0.9685024513133148	0.0	1.117299585084379	-0.5855025298950698	0.0	1.1886717742773432	-0.7889653855035975	0.0	1.2166259117183322	-0.9937239361452994	0.0	1.2955659463269351	-1.026117773055609	0.0	1.3018750550126363	-1.018786625489895	0.0	1.1861580533160434	-1.017138160286685	0.0	1.1264165428430406	-0.27928640631171203	0.0	1.1658461043270483	-0.1503240958239448	0.0	1.1902018867166266	-0.23106508620221106	0.0	1.120236433221837	-0.3122675825852336	0.0	1.2058103965492328	-0.4439320677756829	0.0	1.3118547936199656	-0.5391743830174183	0.0	1.1037792691661428	-0.3131749510490449	0.0	1.1790975017884764	-0.4421787124604734	0.0	1.2787196587279324	-0.5191525834556824	0.0
18	0.6057692307692307	1.1072281813275069	-0.5844322055875621	0.0	1.100451610488922	-0.5814942628024773	0.0	1.110251381241819	-0.8020090190783409	0.0	0.9639670546007035	-0.9537621984291252	0.0	1.0131717067659864	-1.0284581737035614	0.0	0.9896004722587906	-1.0284572841004291	0.0	0.9340509954574308	-0.9632459545021231	0.0	1.1282219539768255	-0.5839939977822081	0.0	1.1991483729437058	-0.7867141142268745	0.0	1.2168609283733582	-0.990637974631885	0.0	1.2788008718728137	-1.0274021420362043	0.0	1.2983595042133107	-1.0199186867918808	0.0	1.1710626433308142	-1.011462167592977	0.0	1.1497697526136175	-0.2786971965638726	0.0	1.1913412776592238	-0.15034476595722593	0.0	1.2139674577384612	-0.23123030020664953	0.0	1.1443005893302038	-0.3130461147041657	0.0	1.2057717195558397	-0.4607035480385293	0.0	1.288597707726464	-0.5803601261814453	0.0	1.1224072678700447	-0.3122110421910641	0.0	1.1722647862174949	-0.45373767563067263	0.0	1.2563854599936977	-0.5555020309842312	0.0
19	0.6394230769230769	1.124358186684407	-0.5842970946056634	0.0	1.121670993522152	-0.5815663369577406	0.0	1.1466095985973854	-0.7985726752115745	0.0	1.0113245925682668	-0.9523080234152952	0.0	1.0619242172523538	-1.0274343630228095	0.0	1.0391170454676844	-1.0278649861949072	0.0	0.980739231561665	-0.9647593584448261	0.0	1.1395980931814396	-0.5821186344639224	0.0	1.206823407353612	-0.7844139129440666	0.0	1.2158367289235672	-0.9864202156476493	0.0	1.261517586912429	-1.0264341391795628	0.0	1.2942139923244333	-1.0187366038867087	0.0	1.1558105233246463	-1.0050422017216731	0.0	1.1726143088407508	-0.27711755105505276	0.0	1.2161384499200174	-0.149433793595027	0.0	1.237092446039258	-0.2302286188213242	0.0	1.1659402201838522	-0.31245567251279105	0.0	1.2002271692162345	-0.4703269228685002	0.0	1.2554860045837422	-0.607886170566407	0.0	1.1416343919044043	-0.31054043290681366	0.0	1.1623719451863546	-0.4605462438635847	0.0	1.227191049331531	-0.5793520655941091	0.0
20	0.673076923076923	1.1419824872077313	-0.5835087255481731	0.0	1.1422860470215859	-0.5808802077555428	0.0	1.1788109849650905	-0.7946266547924761	0.0	1.060111245098256	-0.9557361862054982	0.0	1.1155440902274179	-1.0282857241433447	0.0	1.0933360637598133	-1.0299993667430123	0.0	1.0289918231872814	-0.9724767805434316	0.0	1.1522438804107948	-0.5798464966529123	0.0	1.211548091288385	-0.7826248019115307	0.0	1.2137438757263437	-0.9827101785794992	0.0	1.2524139523609512	-1.0245943215468378	0.0	1.2907913781796414	-1.0165687139862682	0.0	1.147179867663516	-1.0008100701351839	0.0	1.1944690541317018	-0.27485116675039706	0.0	1.2396569012237943	-0.14783816228059232	0.0	1.2590623916726518	-0.2285121294846797	0.0	1.1844488396152435	-0.3104393961567616	0.0	1.1900922826903186	-0.47249549524049045	0.0	1.215153173002002	-0.6197896742281868	0.0	1.1615343213062037	-0.3082056631504721	0.0	1.1519947775474753	-0.46243147223987413	0.0	1.1939634923240863	-0.5905858891114186	0.0
21	0.7067307692307692	1.1590315266002322	-0.5815521722351387	0.0	1.1611891273091361	-0.5788934641766362	0.0	1.2053651598991992	-0.7906932179944279	0.0	1.105156107557716	-0.9637513164446513	0.0	1.1675626725957233	-1.0312379675332177	0.0	1.1457540258859336	-1.034717970252813	0.0	1.073460777619633	-0.9842084188414146	0.0	1.165176692245269	-0.5767350072297589	0.0	1.2132767870059615	-0.7815928546014494	0.0	1.210781852781633	-0.980420558455057	0.0	1.256678348189446	-1.0225863421886217	0.0	1.2890534881691376	-1.014160569133868	0.0	1.1485323891197003	-1.0002670038168553	0.0	1.215022216985586	-0.2723169803596212	0.0	1.2618868866634545	-0.14579722932780656	0.0	1.279678166196986	-0.22650032003973072	0.0	1.2000880985794344	-0.30698683913063046	0.0	1.1773168193576382	-0.467516227288506	0.0	1.1716482097517864	-0.6161499743163759	0.0	1.1821321634998325	-0.305318014563407	0.0	1.1438070479111575	-0.46001103856773257	0.0	1.1603265674829426	-0.591361626109426	0.0
22	0.7403846153846153	1.1738609309942096	-0.5779641083308705	0.0	1.1771874811767467	-0.5752468437123384	0.0	1.2266671360103065	-0.7872145647941756	0.0	1.146026202806115	-0.9752175997616561	0.0	1.216770912959694	-1.0355323536966803	0.0	1.195225873601795	-1.0409685302436795	0.0	1.1139667571628658	-0.9980231013315045	0.0	1.1760367145473936	-0.5724193287523991	0.0	1.2125702981491375	-0.7812755580399977	0.0	1.2077649219447006	-0.9790862852509471	0.0	1.2709086520524522	-1.0200908455399758	0.0	1.2895649156334594	-1.011304049392963	0.0	1.1562794628555058	-1.0019563587527378	0.0	1.2341007542257036	-0.2699470764236687	0.0	1.283171391617071	-0.14356613531855578	0.0	1.2988954835495021	-0.2245443168593327	0.0	1.2137804403870425	-0.30236994138117507	0.0	1.1644754738245031	-0.4562890609090609	0.0	1.1293416934821399	-0.59897433765893	0.0	1.2031752307350487	-0.30204346800318815	0.0	1.1394832295526391	-0.4544187649488613	0.0	1.1301966928417742	-0.5848076213585122	0.0
23	0.7740384615384615	1.1851834078476138	-0.5727849941542273	0.0	1.1895952859143502	-0.570184621009202	0.0	1.2434965803513438	-0.784645438653362	0.0	1.1829589804258471	-0.9881244619367946	0.0	1.2627559030228623	-1.0402480105129825	0.0	1.2412316321247798	-1.0474265020153808	0.0	1.1511075506098607	-1.012029099334643	0.0	1.1831566682268448	-0.5670824386464449	0.0	1.2110575081294985	-0.7814737332502429	0.0	1.2063550377821346	-0.9779771909794329	0.0	1.2882106303165395	-1.0166033011757083	0.0	1.292911023117564	-1.0076539562652438	0.0	1.1650973002887395	-1.003541925946636	0.0	1.2514867790786324	-0.26801005540635753	0.0	1.3037772254965259	-0.14153527434496938	0.0	1.3166845427815421	-0.2229887082972322	0.0	1.2264770054204446	-0.29714964426594764	0.0	1.1540137136702604	-0.44026338279903854	0.0	1.0919014115269778	-0.5714921610989399	0.0	1.2238674747769238	-0.2985201038261255	0.0	1.139122007258623	-0.44681041101381586	0.0	1.1074038871935714	-0.5737659787085175	0.0
24	0.8076923076923077	1.192875223516806	-0.5667050027395184	0.0	1.1988350338745735	-0.5645162071134374	0.0	1.256388025760454	-0.7832202913090455	0.0	1.2137997006427659	-1.0000668143567897	0.0	1.3022969477883226	-1.0448165278018462	0.0	1.2803388933741586	-1.053055449534844	0.0	1.1827980103801343	-1.0240844921384293	0.0	1.1864510341542116	-0.5614129614652783	0.0	1.2101474213323895	-0.7818616645076368	0.0	1.207507901087808	-0.9771087716183844	0.0	1.3042826030174288	-1.01217760787349	0.0	1.2991731593116504	-1.0033374460423525	0.0	1.1725311386648412	-1.0041592021950414	0.0	1.266847985998768	-0.2664931559355761	0.0	1.3235950648941757	-0.14016365738948347	0.0	1.3329879833179508	-0.2220725875672802	0.0	1.2387753557994108	-0.2918919735873092	0.0	1.1474384868817247	-0.42113717902502895	0.0	1.0618124161485454	-0.5372326362709753	0.0	1.2428172322630624	-0.2948217595847374	0.0	1.1415448410026003	-0.4379123816595033	0.0	1.0942030520147523	-0.5600759171931202	0.0
